<svg id="Layer_1" data-name="Layer 1" xmlns="http://www.w3.org/2000/svg" viewBox="0 0 55.52 30.21"><defs><style>.cls-1{isolation:isolate;}.cls-2{fill:#010101;}</style></defs><title>hirist logo 60 x 40</title><g class="cls-1"><path class="cls-2" d="M2.42,6a.93.93,0,0,1,.92-.92A.92.92,0,0,1,4.26,6v6.28a5.76,5.76,0,0,1,4.15-1.67,5.77,5.77,0,0,1,4.23,1.76A5.77,5.77,0,0,1,14.4,16.6v6a.92.92,0,0,1-1.84,0v-6a4,4,0,0,0-1.22-2.93,4,4,0,0,0-2.93-1.22,4,4,0,0,0-2.93,1.22A4,4,0,0,0,4.26,16.6v6a.92.92,0,0,1-.92.92.92.92,0,0,1-.92-.92Z" transform="translate(-2.42 -5.08)"/><path class="cls-2" d="M19.24,7.84A1.16,1.16,0,1,1,18.9,7,1.11,1.11,0,0,1,19.24,7.84Zm-2.07,3.69a.92.92,0,0,1,1.84,0V22.59a.92.92,0,0,1-1.84,0Z" transform="translate(-2.42 -5.08)"/><path class="cls-2" d="M21.77,11.53a.92.92,0,0,1,1.84,0v1a6.29,6.29,0,0,1,4.61-1.94,6.5,6.5,0,0,1,2.48.46,1.18,1.18,0,0,1,.38.24.91.91,0,0,1,.26.66A.92.92,0,0,1,30,12.8a4.57,4.57,0,0,0-1.8-.35,4.6,4.6,0,0,0-4.61,4.61v5.53a.92.92,0,0,1-1.84,0Z" transform="translate(-2.42 -5.08)"/><path class="cls-2" d="M35.83,7.84A1.16,1.16,0,1,1,35.49,7,1.11,1.11,0,0,1,35.83,7.84Zm-2.07,3.69a.92.92,0,0,1,1.84,0V22.59a.92.92,0,0,1-1.84,0Z" transform="translate(-2.42 -5.08)"/><path class="cls-2" d="M40.64,17.06a4.08,4.08,0,0,1-1.46-.82,2.63,2.63,0,0,1-.82-1.95,2.73,2.73,0,0,1,.85-2,5.79,5.79,0,0,1,4.33-1.69,6.41,6.41,0,0,1,5,2.32.77.77,0,0,1,.17.54.92.92,0,0,1-.92.92.8.8,0,0,1-.61-.24l-.33-.35a4.44,4.44,0,0,0-3.26-1.35,4,4,0,0,0-3.05,1.2,1.21,1.21,0,0,0-.28.79.79.79,0,0,0,.56.74l5.67,1.88a4.07,4.07,0,0,1,1.46.82,2.63,2.63,0,0,1,.82,1.95,2.73,2.73,0,0,1-.85,2,5.79,5.79,0,0,1-4.33,1.69,6.38,6.38,0,0,1-5-2.32.91.91,0,0,1-.17-.54.92.92,0,0,1,.92-.92A.8.8,0,0,1,40,20l.33.35a4.44,4.44,0,0,0,3.26,1.35,4,4,0,0,0,3.05-1.2,1.21,1.21,0,0,0,.28-.79.79.79,0,0,0-.56-.74Z" transform="translate(-2.42 -5.08)"/><path class="cls-2" d="M57,21.67a.92.92,0,0,1,0,1.84q-4.61,0-4.61-4.61V12.45h-.92a.92.92,0,0,1,0-1.84h.92V6a.92.92,0,0,1,1.84,0v4.61h1.85a.92.92,0,0,1,0,1.84H54.26V18.9A2.44,2.44,0,0,0,57,21.67Z" transform="translate(-2.42 -5.08)"/></g><g class="cls-1"><path class="cls-2" d="M34,34.6a.69.69,0,1,1-.2-.49A.67.67,0,0,1,34,34.6Z" transform="translate(-2.42 -5.08)"/><path class="cls-2" d="M39.92,33.71a.46.46,0,0,1,.46.46.47.47,0,0,1-.14.34,3.23,3.23,0,1,1,0-4.9.46.46,0,0,1,.16.36.46.46,0,0,1-.46.46.45.45,0,0,1-.29-.1,2.3,2.3,0,1,0,0,3.47A.45.45,0,0,1,39.92,33.71Z" transform="translate(-2.42 -5.08)"/><path class="cls-2" d="M47.81,32.07a3.23,3.23,0,1,1-.94-2.28A3.11,3.11,0,0,1,47.81,32.07Zm-3.22-2.3a2.3,2.3,0,1,0,1.63.67A2.22,2.22,0,0,0,44.58,29.76Z" transform="translate(-2.42 -5.08)"/><path class="cls-2" d="M49.65,34.83a.46.46,0,0,1-.92,0V29.3a.44.44,0,0,1,.13-.33.46.46,0,0,1,.65,0,.44.44,0,0,1,.13.33v.12a2.42,2.42,0,0,1,1.61-.58,2.44,2.44,0,0,1,1.79.74,2.79,2.79,0,0,1,.28.33,2.88,2.88,0,0,1,.28-.33,2.53,2.53,0,0,1,4.33,1.79v3.46a.46.46,0,0,1-.92,0V31.38a1.61,1.61,0,0,0-3.23,0v3.46a.46.46,0,0,1-.92,0V31.38a1.61,1.61,0,0,0-3.23,0Z" transform="translate(-2.42 -5.08)"/></g></svg>